<?xml version="1.0" standalone="no"?>
<svg version="1.1" preserveAspectRatio="xMidYMid meet" xmlns="http://www.w3.org/2000/svg">
    <g id="realme-logo" stroke="none" stroke-width="1" fill="none" fill-rule="evenodd">
        <g transform="translate(0,6)">
            <g transform="scale(0.53)">
                <path d="M66.5174419,42.4567164 L54.755814,45.9044776 C55.25,43.3432836 57.2267442,41.0776119 59.6976744,40.2895522 C60.5872093,39.9940299 61.4767442,39.9940299 62.4651163,40.0925373 C63.9476744,40.3880597 65.4302326,41.2746269 66.5174419,42.4567164 L66.5174419,42.4567164 Z M76.6976744,45.5104478 C75.5116279,40.4865672 72.6453488,36.3492537 68.7906977,34.0835821 C65.4302326,32.1134328 61.4767442,31.719403 57.4244186,32.9014925 C52.9767442,34.1820896 49.7151163,36.9402985 48.0348837,40.6835821 C47.5406977,38.2208955 46.6511628,36.7432836 44.9709302,35.1671642 C42.7965116,33.1970149 40.127907,32.1134328 36.8662791,32.1134328 C32.6162791,32.1134328 29.255814,33.9850746 26.8837209,37.6298507 C24.9069767,33.8865672 21.9418605,32.1134328 17.7906977,32.1134328 C13.8372093,32.1134328 11.0697674,33.4925373 9.09302326,36.4477612 L9.09302326,33.0985075 L0.296511628,33.0985075 L0.296511628,64.3253731 L9.68604651,64.3253731 L9.68604651,47.2835821 C9.68604651,43.0477612 11.4651163,40.7820896 14.9244186,40.7820896 C18.0872093,40.7820896 19.6686047,42.9492537 19.6686047,47.2835821 L19.6686047,64.3253731 L29.0581395,64.3253731 L29.0581395,47.2835821 C29.0581395,42.9492537 30.8372093,40.7820896 34.1976744,40.7820896 C37.5581395,40.7820896 38.9418605,42.7522388 38.9418605,47.6776119 L38.9418605,64.2268657 L48.3313953,64.2268657 L48.3313953,55.6567164 C50.6046512,60.680597 54.755814,63.9313433 59.7965116,64.8179104 C62.0697674,65.2119403 64.3430233,65.0149254 66.7151163,64.3253731 L66.9127907,64.2268657 L67.4069767,64.0298507 C73.5348837,61.7641791 77.2906977,56.1492537 77.0930233,49.5492537 L68.6918605,52.0119403 C68.5930233,52.5044776 68.3953488,52.9970149 68.1976744,53.3910448 C67.4069767,54.7701493 66.0232558,55.7552239 64.0465116,56.3462687 C62.8604651,56.641791 61.7732558,56.7402985 60.7848837,56.641791 C58.8081395,56.3462687 57.4244186,55.0656716 56.6337209,54.080597 C56.4360465,53.7850746 56.2383721,53.4895522 56.0406977,53.1940299 L56.0406977,53.1940299 L76.8953488,47.0865672 L76.6976744,45.5104478 L76.6976744,45.5104478 Z" fill="#ED1C24" />
                <path d="M14.7267442,10.8358209 L14.7267442,10.8358209 L14.7267442,10.9343284 C14.7267442,16.8447761 10.377907,17.4358209 5.53488372,17.4358209 L4.34883721,17.4358209 L4.34883721,10.8358209 L4.34883721,10.7373134 L4.34883721,4.13731343 L5.53488372,4.13731343 C10.377907,4.13731343 14.7267442,4.72835821 14.7267442,10.638806 L14.7267442,10.8358209 L14.7267442,10.8358209 Z M18.6802326,11.2298507 L18.6802326,10.7373134 L18.6802326,10.2447761 C18.6802326,2.16716418 12.3546512,0.394029851 5.53488372,0.394029851 L4.34883721,0.394029851 L0.395348837,0.394029851 L0.395348837,10.7373134 L0.395348837,10.8358209 L0.395348837,21.1791045 L0.395348837,29.2567164 L4.34883721,29.2567164 L4.34883721,21.1791045 L5.53488372,21.1791045 C6.12790698,21.1791045 6.72093023,21.1791045 7.31395349,21.080597 L12.255814,29.2567164 L16.7034884,29.2567164 L11.3662791,20.5880597 C15.6162791,19.4059701 18.6802326,16.8447761 18.6802326,11.2298507 L18.6802326,11.2298507 Z M32.7151163,18.1253731 L22.3372093,18.1253731 C22.8313953,15.761194 25.1046512,13.7910448 27.5755814,13.7910448 C30.0465116,13.7910448 32.2209302,15.6626866 32.7151163,18.1253731 L32.7151163,18.1253731 Z M36.2732558,21.080597 L36.2732558,20.8835821 C36.4709302,17.8298507 35.4825581,14.9731343 33.7034884,13.1014925 C32.122093,11.4268657 30.0465116,10.5402985 27.5755814,10.5402985 C21.4476744,10.5402985 18.6802326,15.4656716 18.6802326,20.3910448 C18.6802326,25.8089552 22.4360465,29.7492537 27.6744186,29.7492537 C31.3313953,29.7492537 34.3953488,27.9761194 36.1744186,24.6268657 L36.2732558,24.4298507 L33.4069767,22.7552239 L33.3081395,22.9522388 C31.9244186,25.4149254 30.244186,26.5970149 27.9709302,26.5970149 C24.7093023,26.5970149 22.3372093,24.2328358 22.2383721,20.9820896 L36.2732558,20.9820896 L36.2732558,21.080597 Z M53.1744186,19.8985075 C53.1744186,23.1492537 51.3953488,26.4985075 47.3430233,26.4985075 C43.5872093,26.4985075 41.6104651,23.1492537 41.6104651,19.8985075 C41.6104651,16.8447761 43.6860465,13.5940299 47.244186,13.5940299 C50.7034884,13.5940299 53.1744186,16.1552239 53.1744186,19.8985075 L53.1744186,19.8985075 Z M52.9767442,29.158209 L56.4360465,29.158209 L56.4360465,10.9343284 L52.9767442,10.9343284 L52.9767442,13.2985075 C51.3953488,11.5253731 49.2209302,10.441791 46.9476744,10.441791 C41.1162791,10.441791 38.1511628,15.2686567 38.1511628,20.0955224 C38.1511628,24.7253731 41.2151163,29.6507463 46.9476744,29.6507463 C49.4186047,29.6507463 51.494186,28.7641791 53.0755814,26.8925373 L53.0755814,29.158209 L52.9767442,29.158209 Z M62.3662791,0 L58.9069767,0 L58.9069767,29.158209 L62.3662791,29.158209 L62.3662791,0 L62.3662791,0 Z" fill="#000000" />
                <path d="M84.505814,33.0985075 C84.505814,35.8567164 82.2325581,38.1223881 79.3662791,38.1223881 C76.5,38.1223881 74.2267442,35.9552239 74.2267442,33.0985075 C74.2267442,30.3402985 76.5,28.1731343 79.3662791,28.0746269 C82.2325581,28.1731343 84.505814,30.3402985 84.505814,33.0985075 L84.505814,33.0985075 Z M75.5116279,33.0985075 C75.5116279,35.2656716 77.1918605,37.038806 79.3662791,37.038806 C81.5406977,37.038806 83.122093,35.2656716 83.122093,33.0985075 C83.122093,30.9313433 81.4418605,29.0597015 79.2674419,29.0597015 C77.1918605,29.158209 75.5116279,30.9313433 75.5116279,33.0985075 L75.5116279,33.0985075 Z M78.6744186,35.6597015 L77.4883721,35.6597015 L77.4883721,30.7343284 C77.9825581,30.6358209 78.5755814,30.5373134 79.3662791,30.5373134 C80.255814,30.5373134 80.75,30.7343284 81.0465116,30.9313433 C81.3430233,31.1283582 81.5406977,31.5223881 81.5406977,32.0149254 C81.5406977,32.6059701 81.0465116,33 80.5523256,33.1970149 L80.5523256,33.2955224 C81.0465116,33.4925373 81.244186,33.8865672 81.4418605,34.4776119 C81.6395349,35.2656716 81.7383721,35.4626866 81.8372093,35.6597015 L80.6511628,35.6597015 C80.4534884,35.4626866 80.4534884,35.0686567 80.255814,34.4776119 C80.1569767,33.9850746 79.8604651,33.6895522 79.2674419,33.6895522 L78.6744186,33.6895522 L78.6744186,35.6597015 L78.6744186,35.6597015 Z M78.6744186,32.9014925 L79.2674419,32.9014925 C79.8604651,32.9014925 80.4534884,32.7044776 80.4534884,32.2119403 C80.4534884,31.719403 80.1569767,31.4238806 79.3662791,31.4238806 C79.0697674,31.4238806 78.872093,31.4238806 78.7732558,31.5223881 L78.7732558,32.9014925 L78.6744186,32.9014925 Z" fill="#ED1C24" />
            </g>
        </g>
    </g>
    <g id="ic_visibility_off" stroke="none" stroke-width="1" fill="none" fill-rule="evenodd">
        <g transform="translate(-193.000000, -1155.000000)">
            <g transform="translate(192.000000, 1152.000000)">
                <path d="M12,7 C14.76,7 17,9.24 17,12 C17,12.65 16.87,13.26 16.64,13.83 L19.56,16.75 C21.07,15.49 22.26,13.86 22.99,12 C21.26,7.61 16.99,4.5 11.99,4.5 C10.59,4.5 9.25,4.75 8.01,5.2 L10.17,7.36 C10.74,7.13 11.35,7 12,7 L12,7 Z M2,4.27 L4.28,6.55 L4.74,7.01 C3.08,8.3 1.78,10.02 1,12 C2.73,16.39 7,19.5 12,19.5 C13.55,19.5 15.03,19.2 16.38,18.66 L16.8,19.08 L19.73,22 L21,20.73 L3.27,3 L2,4.27 L2,4.27 Z M7.53,9.8 L9.08,11.35 C9.03,11.56 9,11.78 9,12 C9,13.66 10.34,15 12,15 C12.22,15 12.44,14.97 12.65,14.92 L14.2,16.47 C13.53,16.8 12.79,17 12,17 C9.24,17 7,14.76 7,12 C7,11.21 7.2,10.47 7.53,9.8 L7.53,9.8 Z M11.84,9.02 L14.99,12.17 L15.01,12.01 C15.01,10.35 13.67,9.01 12.01,9.01 L11.84,9.02 L11.84,9.02 Z" id="Icon" fill="#BEC3C4" />
            </g>
        </g>
    </g>
    <g id="ic_visibility" stroke="none" stroke-width="1" fill="none" fill-rule="evenodd">
        <g transform="translate(-145.000000, -1155.000000)">
            <g transform="translate(144.000000, 1152.000000)">
                <path d="M12,5 C7,5 2.73,8.11 1,12.5 C2.73,16.89 7,20 12,20 C17,20 21.27,16.89 23,12.5 C21.27,8.11 17,5 12,5 L12,5 Z M12,17.5 C9.24,17.5 7,15.26 7,12.5 C7,9.74 9.24,7.5 12,7.5 C14.76,7.5 17,9.74 17,12.5 C17,15.26 14.76,17.5 12,17.5 L12,17.5 Z M12,9.5 C10.34,9.5 9,10.84 9,12.5 C9,14.16 10.34,15.5 12,15.5 C13.66,15.5 15,14.16 15,12.5 C15,10.84 13.66,9.5 12,9.5 L12,9.5 Z" id="Icon" fill="#BEC3C4" />
            </g>
        </g>
    </g>
    <g id="ic_lock_outline" stroke="none" stroke-width="1" fill="none" fill-rule="evenodd">
        <g transform="translate(-148.000000, -577.000000)">
            <g transform="translate(144.000000, 576.000000)">
                <path d="M12,17 C13.1,17 14,16.1 14,15 C14,13.9 13.1,13 12,13 C10.9,13 10,13.9 10,15 C10,16.1 10.9,17 12,17 L12,17 Z M18,8 L17,8 L17,6 C17,3.24 14.76,1 12,1 C9.24,1 7,3.24 7,6 L7,8 L6,8 C4.9,8 4,8.9 4,10 L4,20 C4,21.1 4.9,22 6,22 L18,22 C19.1,22 20,21.1 20,20 L20,10 C20,8.9 19.1,8 18,8 L18,8 Z M9,6.03921569 C9,4.3627451 10.3451613,3 12,3 C13.6548387,3 15,4.3627451 15,6.03921569 L15,8 L9,8 L9,6.03921569 L9,6.03921569 Z M18,20 L6,20 L6,10 L18,10 L18,20 L18,20 Z" id="Icon" fill="#BEC3C4" />
            </g>
        </g>
    </g>
</svg>